<svg width="387" height="244" viewBox="0 0 387 244" fill="none" xmlns="http://www.w3.org/2000/svg">
<g filter="url(#filter0_d_1101_31)">
<rect x="30" y="20" width="327" height="184" rx="15" fill="url(#paint0_linear_1101_31)"/>
<mask id="mask0_1101_31" style="mask-type:alpha" maskUnits="userSpaceOnUse" x="30" y="20" width="327" height="184">
<rect x="30" y="20" width="327" height="184" rx="15" fill="#ED713C"/>
</mask>
<g mask="url(#mask0_1101_31)">
<path opacity="0.1" d="M203.69 213C203.69 222.731 199.317 233.366 188.639 244.561C177.872 255.848 161.44 266.832 139.754 276.448C96.429 295.66 35.3151 308 -33.1448 308C-101.605 308 -162.719 295.66 -206.044 276.448C-227.729 266.832 -244.162 255.848 -254.928 244.561C-265.607 233.366 -269.979 222.731 -269.979 213C-269.979 203.269 -265.607 192.634 -254.928 181.439C-244.162 170.152 -227.729 159.168 -206.044 149.552C-162.719 130.34 -101.605 118 -33.1448 118C35.3151 118 96.429 130.34 139.754 149.552C161.44 159.168 177.872 170.152 188.639 181.439C199.317 192.634 203.69 203.269 203.69 213Z" fill="#0D1636" stroke="#0D1636" stroke-width="36"/>
<path opacity="0.1" d="M679.531 -6.5C679.531 21.3498 658.169 50.7043 614.393 74.153C571.371 97.1972 510.699 112 442.697 112C374.694 112 314.022 97.1972 271 74.153C227.224 50.7043 205.862 21.3498 205.862 -6.5C205.862 -34.3498 227.224 -63.7043 271 -87.153C314.022 -110.197 374.694 -125 442.697 -125C510.699 -125 571.371 -110.197 614.393 -87.153C658.169 -63.7043 679.531 -34.3498 679.531 -6.5Z" fill="#0D1636" stroke="#0D1636" stroke-width="36"/>
</g>
<circle cx="79" cy="132" r="2" fill="white"/>
<circle cx="59" cy="132" r="2" fill="white"/>
<circle cx="69" cy="132" r="2" fill="white"/>
<circle cx="49" cy="132" r="2" fill="white"/>
<rect x="47" y="157" width="33" height="22" rx="5" fill="url(#paint1_radial_1101_31)"/>
<path fill-rule="evenodd" clip-rule="evenodd" d="M63.5 157.219L59.8333 162.968C59.8333 162.968 61.3 167.999 59.8333 172.311L63.5 178.779L67.1667 172.311C67.1667 172.311 65.7 168.718 67.1667 162.968C67.1667 162.968 63.5 157.219 63.5 157.219Z" stroke="#C7C7B6" stroke-width="1.3" stroke-linejoin="bevel"/>
<path d="M47 163.232H59.8333" stroke="#C7C7B6" stroke-width="1.3" stroke-linejoin="bevel"/>
<path d="M66.7997 163.232H79.9997" stroke="#C7C7B6" stroke-width="1.3" stroke-linejoin="bevel"/>
<path d="M47 172.032H59.8333" stroke="#C7C7B6" stroke-width="1.3" stroke-linejoin="bevel"/>
<path d="M66.7997 172.032H79.9997" stroke="#C7C7B6" stroke-width="1.3" stroke-linejoin="bevel"/>
<path opacity="0.5" d="M47.516 111.04C47.468 113.308 49.424 115.168 51.68 115.132C53.156 115.132 54.404 114.424 55.076 113.308L54.116 112.6C53.552 113.476 52.736 113.968 51.692 113.968C50.072 113.968 48.836 112.72 48.836 111.04C48.836 109.36 50.072 108.112 51.692 108.112C52.736 108.112 53.552 108.604 54.116 109.48L55.076 108.772C54.392 107.656 53.132 106.948 51.68 106.948C49.424 106.912 47.468 108.772 47.516 111.04ZM59.8856 109.108C59.7416 109.072 59.5856 109.048 59.4056 109.048C58.7336 109.048 58.1096 109.348 57.6896 109.876V109.108H56.5136V115H57.7736V111.856C57.7736 110.812 58.5056 110.224 59.5016 110.224H59.8856V109.108ZM66.2004 112.468C66.2604 112.192 66.2964 111.928 66.2964 111.676C66.2964 110.14 65.1324 108.976 63.5724 108.976C61.9044 108.94 60.4884 110.368 60.5244 112.06C60.5244 113.8 61.8924 115.132 63.6924 115.132C64.5924 115.132 65.3724 114.82 66.0444 114.184L65.4444 113.32C64.9164 113.788 64.3404 114.016 63.7284 114.016C62.7204 114.016 61.9644 113.428 61.8084 112.468H66.2004ZM61.8324 111.484C62.0244 110.608 62.6964 110.044 63.5244 110.044C64.3524 110.044 65.0244 110.584 65.0364 111.484H61.8324ZM72.2161 106V109.828C71.7721 109.288 71.0641 108.976 70.2481 108.976C68.6161 108.94 67.3321 110.344 67.3681 112.06C67.3681 113.8 68.5921 115.132 70.2481 115.132C71.1241 115.132 71.8801 114.772 72.3121 114.16V115H73.4881V106H72.2161ZM72.2401 112.06C72.2401 113.344 71.3881 113.98 70.4641 113.98C69.4201 113.98 68.6521 113.176 68.6521 112.048C68.6521 110.92 69.4561 110.128 70.4641 110.128C71.3761 110.128 72.2401 110.788 72.2401 112.06ZM75.3104 115H76.5704V109.108H75.3104V115ZM75.0824 106.912C75.0824 107.38 75.4664 107.74 75.9464 107.74C76.4144 107.74 76.7984 107.38 76.7984 106.912C76.7984 106.444 76.4144 106.072 75.9464 106.072C75.4664 106.072 75.0824 106.444 75.0824 106.912ZM81.8965 113.932C81.5485 113.968 81.2965 113.992 81.1165 113.992C80.3485 113.992 79.9525 113.728 79.9525 112.972V110.2H81.7045V109.108H79.9525V107.56H78.6805V109.108H77.7205V110.2H78.6805V113.08C78.6805 114.46 79.4965 115.132 80.8525 115.132C81.1525 115.132 81.5005 115.084 81.8965 115V113.932ZM86.141 111.04C86.093 113.308 88.049 115.168 90.305 115.132C91.781 115.132 93.029 114.424 93.701 113.308L92.741 112.6C92.177 113.476 91.361 113.968 90.317 113.968C88.697 113.968 87.461 112.72 87.461 111.04C87.461 109.36 88.697 108.112 90.317 108.112C91.361 108.112 92.177 108.604 92.741 109.48L93.701 108.772C93.017 107.656 91.757 106.948 90.305 106.948C88.049 106.912 86.093 108.772 86.141 111.04ZM99.76 111.436C99.76 109.852 98.8 108.976 97.348 108.976C96.328 108.976 95.452 109.384 94.864 110.236L95.596 110.98C96.088 110.392 96.568 110.104 97.228 110.104C98.032 110.104 98.488 110.548 98.488 111.364V111.748H96.82C95.488 111.748 94.648 112.408 94.648 113.428C94.648 114.448 95.464 115.132 96.7 115.132C97.504 115.132 98.152 114.856 98.584 114.34V115H99.76V111.436ZM98.488 112.768C98.488 113.572 97.816 114.16 96.964 114.16C96.352 114.16 95.932 113.872 95.932 113.38C95.932 112.9 96.304 112.66 96.976 112.66H98.488V112.768ZM104.886 109.108C104.742 109.072 104.586 109.048 104.406 109.048C103.734 109.048 103.11 109.348 102.69 109.876V109.108H101.514V115H102.774V111.856C102.774 110.812 103.506 110.224 104.502 110.224H104.886V109.108ZM110.372 106V109.828C109.928 109.288 109.22 108.976 108.404 108.976C106.772 108.94 105.488 110.344 105.524 112.06C105.524 113.8 106.748 115.132 108.404 115.132C109.28 115.132 110.036 114.772 110.468 114.16V115H111.644V106H110.372ZM110.396 112.06C110.396 113.344 109.544 113.98 108.62 113.98C107.576 113.98 106.808 113.176 106.808 112.048C106.808 110.92 107.612 110.128 108.62 110.128C109.532 110.128 110.396 110.788 110.396 112.06Z" fill="white"/>
<path d="M63.4164 42.9741H75.5837V64.8366H63.4164V42.9741Z" fill="#B27BFF"/>
<path d="M64.1888 53.9055C64.1888 49.4635 66.2746 45.5236 69.4805 42.9742C67.1244 41.1201 64.1503 40 60.9057 40C53.2188 40 47 46.2188 47 53.9055C47 61.5921 53.2188 67.811 60.9055 67.811C64.1501 67.811 67.1243 66.6909 69.4805 64.8367C66.2746 62.326 64.1888 58.3475 64.1888 53.9055V53.9055Z" fill="#9E59FF"/>
<path d="M91.9995 53.9055C91.9995 61.5921 85.7807 67.811 78.094 67.811C74.8494 67.811 71.8752 66.6909 69.519 64.8367C72.7636 62.2874 74.8108 58.3475 74.8108 53.9055C74.8108 49.4635 72.7249 45.5236 69.519 42.9742C71.875 41.1201 74.8494 40 78.094 40C85.7807 40 91.9997 46.2575 91.9997 53.9055H91.9995Z" fill="#9E59FF"/>
</g>
<defs>
<filter id="filter0_d_1101_31" x="0" y="0" width="387" height="244" filterUnits="userSpaceOnUse" color-interpolation-filters="sRGB">
<feFlood flood-opacity="0" result="BackgroundImageFix"/>
<feColorMatrix in="SourceAlpha" type="matrix" values="0 0 0 0 0 0 0 0 0 0 0 0 0 0 0 0 0 0 127 0" result="hardAlpha"/>
<feOffset dy="10"/>
<feGaussianBlur stdDeviation="15"/>
<feComposite in2="hardAlpha" operator="out"/>
<feColorMatrix type="matrix" values="0 0 0 0 0.611765 0 0 0 0 0.172549 0 0 0 0 0.952941 0 0 0 0.2 0"/>
<feBlend mode="normal" in2="BackgroundImageFix" result="effect1_dropShadow_1101_31"/>
<feBlend mode="normal" in="SourceGraphic" in2="effect1_dropShadow_1101_31" result="shape"/>
</filter>
<linearGradient id="paint0_linear_1101_31" x1="194.628" y1="-10.5053" x2="201.095" y2="227.049" gradientUnits="userSpaceOnUse">
<stop stop-color="#9C2CF3"/>
<stop offset="1" stop-color="#3A49F9"/>
</linearGradient>
<radialGradient id="paint1_radial_1101_31" cx="0" cy="0" r="1" gradientUnits="userSpaceOnUse" gradientTransform="translate(65.9503 165.014) rotate(141.302) scale(22.37 22.2003)">
<stop stop-color="white"/>
<stop offset="1" stop-color="#DDDCDA"/>
</radialGradient>
</defs>
</svg>
