<svg width="702" height="417" viewBox="0 0 702 417" fill="none" xmlns="http://www.w3.org/2000/svg">
<rect width="702" height="417" rx="15" fill="url(#paint0_linear_1101_31)"/>
<mask id="mask0_1101_31" style="mask-type:alpha" maskUnits="userSpaceOnUse" x="0" y="0" width="702" height="417">
<rect width="702" height="417" rx="15" fill="#ED713C"/>
</mask>
<g mask="url(#mask0_1101_31)">
<path opacity="0.1" d="M393.517 437.397C393.517 496.997 341.212 556.51 243.651 602.179C147.533 647.173 13.4815 675.489 -135.559 675.489C-284.599 675.489 -418.65 647.173 -514.768 602.179C-612.33 556.51 -664.634 496.997 -664.634 437.397C-664.634 377.797 -612.33 318.284 -514.768 272.614C-418.65 227.62 -284.599 199.304 -135.559 199.304C13.4815 199.304 147.533 227.62 243.651 272.614C341.212 318.284 393.517 377.797 393.517 437.397Z" fill="#0D1636" stroke="#0D1636" stroke-width="36"/>
<path opacity="0.1" d="M1415.05 -60.0572C1415.05 16.0247 1360.33 88.5204 1263.95 143.018C1168.12 197.208 1034.52 231.293 885.972 231.293C737.423 231.293 603.823 197.208 507.991 143.018C411.614 88.5204 356.897 16.0247 356.897 -60.0572C356.897 -136.139 411.614 -208.635 507.991 -263.133C603.823 -317.322 737.423 -351.408 885.972 -351.408C1034.52 -351.408 1168.12 -317.322 1263.95 -263.133C1360.33 -208.635 1415.05 -136.139 1415.05 -60.0572Z" fill="#0D1636" stroke="#0D1636" stroke-width="36"/>
</g>
<rect x="36.4954" y="310.484" width="70.844" height="49.8587" rx="5" fill="url(#paint1_radial_1101_31)"/>
<path fill-rule="evenodd" clip-rule="evenodd" d="M71.9174 310.98L64.0459 324.009C64.0459 324.009 67.1945 335.41 64.0459 345.183L71.9174 359.841L79.789 345.183C79.789 345.183 76.6404 337.039 79.789 324.009C79.789 324.009 71.9174 310.98 71.9174 310.98Z" stroke="#C7C7B6" stroke-width="1.3" stroke-linejoin="bevel"/>
<path d="M36.4954 324.608H64.0459" stroke="#C7C7B6" stroke-width="1.3" stroke-linejoin="bevel"/>
<path d="M79.0011 324.608H107.339" stroke="#C7C7B6" stroke-width="1.3" stroke-linejoin="bevel"/>
<path d="M36.4954 344.551H64.0459" stroke="#C7C7B6" stroke-width="1.3" stroke-linejoin="bevel"/>
<path d="M79.0011 344.551H107.339" stroke="#C7C7B6" stroke-width="1.3" stroke-linejoin="bevel"/>
<path d="M71.738 52.0664H97.8586V101.614H71.738V52.0664Z" fill="#B27BFF"/>
<path d="M73.3962 76.8401C73.3962 66.7733 77.8739 57.8441 84.7562 52.0664C79.6983 47.8646 73.3134 45.326 66.348 45.326C49.8458 45.326 36.4954 59.4196 36.4954 76.8401C36.4954 94.2603 49.8458 108.354 66.3476 108.354C73.3131 108.354 79.698 105.816 84.7562 101.614C77.8739 95.9235 73.3962 86.907 73.3962 76.8401V76.8401Z" fill="#9E59FF"/>
<path d="M133.1 76.8401C133.1 94.2603 119.749 108.354 103.248 108.354C96.2822 108.354 89.8973 105.816 84.839 101.614C91.8045 95.8362 96.1994 86.907 96.1994 76.8401C96.1994 66.7733 91.7214 57.8441 84.839 52.0664C89.8969 47.8646 96.2822 45.326 103.248 45.326C119.749 45.326 133.1 59.5074 133.1 76.8401H133.1Z" fill="#9E59FF"/>
<defs>
<linearGradient id="paint0_linear_1101_31" x1="353.421" y1="-69.1342" x2="368.891" y2="469.191" gradientUnits="userSpaceOnUse">
<stop stop-color="#9C2CF3"/>
<stop offset="1" stop-color="#3A49F9"/>
</linearGradient>
<radialGradient id="paint1_radial_1101_31" cx="0" cy="0" r="1" gradientUnits="userSpaceOnUse" gradientTransform="translate(77.1778 328.645) rotate(139.779) scale(49.086 49.2237)">
<stop stop-color="white"/>
<stop offset="1" stop-color="#DDDCDA"/>
</radialGradient>
</defs>
</svg>
