<svg width="345" height="209" viewBox="0 0 345 209" fill="none" xmlns="http://www.w3.org/2000/svg">
<rect y="25" width="327" height="184" rx="15" fill="url(#paint0_linear_1101_31)"/>
<mask id="mask0_1101_31" style="mask-type:alpha" maskUnits="userSpaceOnUse" x="0" y="25" width="327" height="184">
<rect y="25" width="327" height="184" rx="15" fill="#ED713C"/>
</mask>
<g mask="url(#mask0_1101_31)">
<path opacity="0.1" d="M173.69 218C173.69 227.731 169.317 238.366 158.639 249.561C147.872 260.848 131.44 271.832 109.754 281.448C66.429 300.66 5.31506 313 -63.1448 313C-131.605 313 -192.719 300.66 -236.044 281.448C-257.729 271.832 -274.162 260.848 -284.928 249.561C-295.607 238.366 -299.979 227.731 -299.979 218C-299.979 208.269 -295.607 197.634 -284.928 186.439C-274.162 175.152 -257.729 164.168 -236.044 154.552C-192.719 135.34 -131.605 123 -63.1448 123C5.31506 123 66.429 135.34 109.754 154.552C131.44 164.168 147.872 175.152 158.639 186.439C169.317 197.634 173.69 208.269 173.69 218Z" fill="#0D1636" stroke="#0D1636" stroke-width="36"/>
<path opacity="0.1" d="M649.531 -1.5C649.531 26.3498 628.169 55.7043 584.393 79.153C541.371 102.197 480.699 117 412.697 117C344.694 117 284.022 102.197 241 79.153C197.224 55.7043 175.862 26.3498 175.862 -1.5C175.862 -29.3498 197.224 -58.7043 241 -82.153C284.022 -105.197 344.694 -120 412.697 -120C480.699 -120 541.371 -105.197 584.393 -82.153C628.169 -58.7043 649.531 -29.3498 649.531 -1.5Z" fill="#0D1636" stroke="#0D1636" stroke-width="36"/>
</g>
<circle cx="49" cy="137" r="2" fill="white"/>
<circle cx="29" cy="137" r="2" fill="white"/>
<circle cx="39" cy="137" r="2" fill="white"/>
<circle cx="19" cy="137" r="2" fill="white"/>
<rect x="17" y="162" width="33" height="22" rx="5" fill="url(#paint1_radial_1101_31)"/>
<path fill-rule="evenodd" clip-rule="evenodd" d="M33.5 162.219L29.8333 167.968C29.8333 167.968 31.3 172.999 29.8333 177.311L33.5 183.779L37.1667 177.311C37.1667 177.311 35.7 173.718 37.1667 167.968C37.1667 167.968 33.5 162.219 33.5 162.219Z" stroke="#C7C7B6" stroke-width="1.3" stroke-linejoin="bevel"/>
<path d="M17 168.232H29.8333" stroke="#C7C7B6" stroke-width="1.3" stroke-linejoin="bevel"/>
<path d="M36.7997 168.232H49.9997" stroke="#C7C7B6" stroke-width="1.3" stroke-linejoin="bevel"/>
<path d="M17 177.032H29.8333" stroke="#C7C7B6" stroke-width="1.3" stroke-linejoin="bevel"/>
<path d="M36.7997 177.032H49.9997" stroke="#C7C7B6" stroke-width="1.3" stroke-linejoin="bevel"/>
<path opacity="0.5" d="M17.516 116.04C17.468 118.308 19.424 120.168 21.68 120.132C23.156 120.132 24.404 119.424 25.076 118.308L24.116 117.6C23.552 118.476 22.736 118.968 21.692 118.968C20.072 118.968 18.836 117.72 18.836 116.04C18.836 114.36 20.072 113.112 21.692 113.112C22.736 113.112 23.552 113.604 24.116 114.48L25.076 113.772C24.392 112.656 23.132 111.948 21.68 111.948C19.424 111.912 17.468 113.772 17.516 116.04ZM29.8856 114.108C29.7416 114.072 29.5856 114.048 29.4056 114.048C28.7336 114.048 28.1096 114.348 27.6896 114.876V114.108H26.5136V120H27.7736V116.856C27.7736 115.812 28.5056 115.224 29.5016 115.224H29.8856V114.108ZM36.2004 117.468C36.2604 117.192 36.2964 116.928 36.2964 116.676C36.2964 115.14 35.1324 113.976 33.5724 113.976C31.9044 113.94 30.4884 115.368 30.5244 117.06C30.5244 118.8 31.8924 120.132 33.6924 120.132C34.5924 120.132 35.3724 119.82 36.0444 119.184L35.4444 118.32C34.9164 118.788 34.3404 119.016 33.7284 119.016C32.7204 119.016 31.9644 118.428 31.8084 117.468H36.2004ZM31.8324 116.484C32.0244 115.608 32.6964 115.044 33.5244 115.044C34.3524 115.044 35.0244 115.584 35.0364 116.484H31.8324ZM42.2161 111V114.828C41.7721 114.288 41.0641 113.976 40.2481 113.976C38.6161 113.94 37.3321 115.344 37.3681 117.06C37.3681 118.8 38.5921 120.132 40.2481 120.132C41.1241 120.132 41.8801 119.772 42.3121 119.16V120H43.4881V111H42.2161ZM42.2401 117.06C42.2401 118.344 41.3881 118.98 40.4641 118.98C39.4201 118.98 38.6521 118.176 38.6521 117.048C38.6521 115.92 39.4561 115.128 40.4641 115.128C41.3761 115.128 42.2401 115.788 42.2401 117.06ZM45.3104 120H46.5704V114.108H45.3104V120ZM45.0824 111.912C45.0824 112.38 45.4664 112.74 45.9464 112.74C46.4144 112.74 46.7984 112.38 46.7984 111.912C46.7984 111.444 46.4144 111.072 45.9464 111.072C45.4664 111.072 45.0824 111.444 45.0824 111.912ZM51.8965 118.932C51.5485 118.968 51.2965 118.992 51.1165 118.992C50.3485 118.992 49.9525 118.728 49.9525 117.972V115.2H51.7045V114.108H49.9525V112.56H48.6805V114.108H47.7205V115.2H48.6805V118.08C48.6805 119.46 49.4965 120.132 50.8525 120.132C51.1525 120.132 51.5005 120.084 51.8965 120V118.932ZM56.141 116.04C56.093 118.308 58.049 120.168 60.305 120.132C61.781 120.132 63.029 119.424 63.701 118.308L62.741 117.6C62.177 118.476 61.361 118.968 60.317 118.968C58.697 118.968 57.461 117.72 57.461 116.04C57.461 114.36 58.697 113.112 60.317 113.112C61.361 113.112 62.177 113.604 62.741 114.48L63.701 113.772C63.017 112.656 61.757 111.948 60.305 111.948C58.049 111.912 56.093 113.772 56.141 116.04ZM69.76 116.436C69.76 114.852 68.8 113.976 67.348 113.976C66.328 113.976 65.452 114.384 64.864 115.236L65.596 115.98C66.088 115.392 66.568 115.104 67.228 115.104C68.032 115.104 68.488 115.548 68.488 116.364V116.748H66.82C65.488 116.748 64.648 117.408 64.648 118.428C64.648 119.448 65.464 120.132 66.7 120.132C67.504 120.132 68.152 119.856 68.584 119.34V120H69.76V116.436ZM68.488 117.768C68.488 118.572 67.816 119.16 66.964 119.16C66.352 119.16 65.932 118.872 65.932 118.38C65.932 117.9 66.304 117.66 66.976 117.66H68.488V117.768ZM74.8856 114.108C74.7416 114.072 74.5856 114.048 74.4056 114.048C73.7336 114.048 73.1096 114.348 72.6896 114.876V114.108H71.5136V120H72.7736V116.856C72.7736 115.812 73.5056 115.224 74.5016 115.224H74.8856V114.108ZM80.3724 111V114.828C79.9284 114.288 79.2204 113.976 78.4044 113.976C76.7724 113.94 75.4884 115.344 75.5244 117.06C75.5244 118.8 76.7484 120.132 78.4044 120.132C79.2804 120.132 80.0364 119.772 80.4684 119.16V120H81.6444V111H80.3724ZM80.3964 117.06C80.3964 118.344 79.5444 118.98 78.6204 118.98C77.5764 118.98 76.8084 118.176 76.8084 117.048C76.8084 115.92 77.6124 115.128 78.6204 115.128C79.5324 115.128 80.3964 115.788 80.3964 117.06Z" fill="white"/>
<path d="M33.4164 47.9741H45.5837V69.8366H33.4164V47.9741Z" fill="#B27BFF"/>
<path d="M34.1888 58.9055C34.1888 54.4635 36.2746 50.5236 39.4805 47.9742C37.1244 46.1201 34.1503 45 30.9057 45C23.2188 45 17 51.2188 17 58.9055C17 66.5921 23.2188 72.811 30.9055 72.811C34.1501 72.811 37.1243 71.6909 39.4805 69.8367C36.2746 67.326 34.1888 63.3475 34.1888 58.9055V58.9055Z" fill="#9E59FF"/>
<path d="M61.9995 58.9055C61.9995 66.5921 55.7807 72.811 48.094 72.811C44.8494 72.811 41.8752 71.6909 39.519 69.8367C42.7636 67.2874 44.8108 63.3475 44.8108 58.9055C44.8108 54.4635 42.7249 50.5236 39.519 47.9742C41.875 46.1201 44.8494 45 48.094 45C55.7807 45 61.9997 51.2575 61.9997 58.9055H61.9995Z" fill="#9E59FF"/>
<g filter="url(#filter0_d_1101_31)">
<rect x="291" y="20" width="24" height="24" rx="12" fill="url(#paint2_linear_1101_31)"/>
</g>
<path d="M308.333 28L301 35.3333L297.667 32" stroke="white" stroke-width="2" stroke-linecap="round" stroke-linejoin="round"/>
<defs>
<filter id="filter0_d_1101_31" x="261" y="0" width="84" height="84" filterUnits="userSpaceOnUse" color-interpolation-filters="sRGB">
<feFlood flood-opacity="0" result="BackgroundImageFix"/>
<feColorMatrix in="SourceAlpha" type="matrix" values="0 0 0 0 0 0 0 0 0 0 0 0 0 0 0 0 0 0 127 0" result="hardAlpha"/>
<feOffset dy="10"/>
<feGaussianBlur stdDeviation="15"/>
<feComposite in2="hardAlpha" operator="out"/>
<feColorMatrix type="matrix" values="0 0 0 0 1 0 0 0 0 0.6 0 0 0 0 0 0 0 0 0.2 0"/>
<feBlend mode="normal" in2="BackgroundImageFix" result="effect1_dropShadow_1101_31"/>
<feBlend mode="normal" in="SourceGraphic" in2="effect1_dropShadow_1101_31" result="shape"/>
</filter>
<linearGradient id="paint0_linear_1101_31" x1="164.628" y1="-5.50526" x2="171.095" y2="232.049" gradientUnits="userSpaceOnUse">
<stop stop-color="#9C2CF3"/>
<stop offset="1" stop-color="#3A49F9"/>
</linearGradient>
<radialGradient id="paint1_radial_1101_31" cx="0" cy="0" r="1" gradientUnits="userSpaceOnUse" gradientTransform="translate(35.9503 170.014) rotate(141.302) scale(22.37 22.2003)">
<stop stop-color="white"/>
<stop offset="1" stop-color="#DDDCDA"/>
</radialGradient>
<linearGradient id="paint2_linear_1101_31" x1="303" y1="20" x2="303" y2="44" gradientUnits="userSpaceOnUse">
<stop stop-color="#FFCF53"/>
<stop offset="1" stop-color="#FF9900"/>
</linearGradient>
</defs>
</svg>
