<svg width="702" height="417" viewBox="0 0 702 417" fill="none" xmlns="http://www.w3.org/2000/svg">
<rect width="702" height="417" rx="15" fill="url(#paint0_linear_1101_31)"/>
<mask id="mask0_1101_31" style="mask-type:alpha" maskUnits="userSpaceOnUse" x="0" y="0" width="702" height="417">
<rect width="702" height="417" rx="15" fill="#ED713C"/>
</mask>
<g mask="url(#mask0_1101_31)">
<path opacity="0.1" d="M393.517 437.397C393.517 496.997 341.212 556.51 243.651 602.179C147.533 647.173 13.4815 675.489 -135.559 675.489C-284.599 675.489 -418.65 647.173 -514.768 602.179C-612.33 556.51 -664.634 496.997 -664.634 437.397C-664.634 377.797 -612.33 318.284 -514.768 272.614C-418.65 227.62 -284.599 199.304 -135.559 199.304C13.4815 199.304 147.533 227.62 243.651 272.614C341.212 318.284 393.517 377.797 393.517 437.397Z" fill="#0D1636" stroke="#0D1636" stroke-width="36"/>
<path opacity="0.1" d="M1415.05 -60.0572C1415.05 16.0247 1360.33 88.5204 1263.95 143.018C1168.12 197.208 1034.52 231.293 885.972 231.293C737.423 231.293 603.823 197.208 507.991 143.018C411.614 88.5204 356.897 16.0247 356.897 -60.0572C356.897 -136.139 411.614 -208.635 507.991 -263.133C603.823 -317.322 737.423 -351.408 885.972 -351.408C1034.52 -351.408 1168.12 -317.322 1263.95 -263.133C1360.33 -208.635 1415.05 -136.139 1415.05 -60.0572Z" fill="#0D1636" stroke="#0D1636" stroke-width="36"/>
</g>
<ellipse cx="105.193" cy="253.826" rx="4.29358" ry="4.53261" fill="white"/>
<ellipse cx="62.2569" cy="253.826" rx="4.29358" ry="4.53261" fill="white"/>
<ellipse cx="83.7248" cy="253.826" rx="4.29358" ry="4.53261" fill="white"/>
<ellipse cx="40.789" cy="253.826" rx="4.29358" ry="4.53261" fill="white"/>
<rect x="36.4954" y="310.484" width="70.844" height="49.8587" rx="5" fill="url(#paint1_radial_1101_31)"/>
<path fill-rule="evenodd" clip-rule="evenodd" d="M71.9174 310.98L64.0459 324.009C64.0459 324.009 67.1945 335.41 64.0459 345.183L71.9174 359.841L79.789 345.183C79.789 345.183 76.6404 337.039 79.789 324.009C79.789 324.009 71.9174 310.98 71.9174 310.98Z" stroke="#C7C7B6" stroke-width="1.3" stroke-linejoin="bevel"/>
<path d="M36.4954 324.608H64.0459" stroke="#C7C7B6" stroke-width="1.3" stroke-linejoin="bevel"/>
<path d="M79.0011 324.608H107.339" stroke="#C7C7B6" stroke-width="1.3" stroke-linejoin="bevel"/>
<path d="M36.4954 344.551H64.0459" stroke="#C7C7B6" stroke-width="1.3" stroke-linejoin="bevel"/>
<path d="M79.0011 344.551H107.339" stroke="#C7C7B6" stroke-width="1.3" stroke-linejoin="bevel"/>
<path opacity="0.5" d="M37.0114 197.41C36.9634 199.678 38.9194 201.538 41.1754 201.502C42.6514 201.502 43.8994 200.794 44.5714 199.678L43.6114 198.97C43.0474 199.846 42.2314 200.338 41.1874 200.338C39.5674 200.338 38.3314 199.09 38.3314 197.41C38.3314 195.73 39.5674 194.482 41.1874 194.482C42.2314 194.482 43.0474 194.974 43.6114 195.85L44.5714 195.142C43.8874 194.026 42.6274 193.318 41.1754 193.318C38.9194 193.282 36.9634 195.142 37.0114 197.41ZM49.381 195.478C49.237 195.442 49.081 195.418 48.901 195.418C48.229 195.418 47.605 195.718 47.185 196.246V195.478H46.009V201.37H47.269V198.226C47.269 197.182 48.001 196.594 48.997 196.594H49.381V195.478ZM55.6958 198.838C55.7558 198.562 55.7918 198.298 55.7918 198.046C55.7918 196.51 54.6278 195.346 53.0678 195.346C51.3998 195.31 49.9838 196.738 50.0198 198.43C50.0198 200.17 51.3878 201.502 53.1878 201.502C54.0878 201.502 54.8678 201.19 55.5398 200.554L54.9398 199.69C54.4118 200.158 53.8358 200.386 53.2238 200.386C52.2158 200.386 51.4598 199.798 51.3038 198.838H55.6958ZM51.3278 197.854C51.5198 196.978 52.1918 196.414 53.0198 196.414C53.8478 196.414 54.5198 196.954 54.5318 197.854H51.3278ZM61.7115 192.37V196.198C61.2675 195.658 60.5595 195.346 59.7435 195.346C58.1115 195.31 56.8275 196.714 56.8635 198.43C56.8635 200.17 58.0875 201.502 59.7435 201.502C60.6195 201.502 61.3755 201.142 61.8075 200.53V201.37H62.9835V192.37H61.7115ZM61.7355 198.43C61.7355 199.714 60.8835 200.35 59.9595 200.35C58.9155 200.35 58.1475 199.546 58.1475 198.418C58.1475 197.29 58.9515 196.498 59.9595 196.498C60.8715 196.498 61.7355 197.158 61.7355 198.43ZM64.8059 201.37H66.0659V195.478H64.8059V201.37ZM64.5779 193.282C64.5779 193.75 64.9619 194.11 65.4419 194.11C65.9099 194.11 66.2939 193.75 66.2939 193.282C66.2939 192.814 65.9099 192.442 65.4419 192.442C64.9619 192.442 64.5779 192.814 64.5779 193.282ZM71.3919 200.302C71.0439 200.338 70.7919 200.362 70.6119 200.362C69.8439 200.362 69.4479 200.098 69.4479 199.342V196.57H71.1999V195.478H69.4479V193.93H68.1759V195.478H67.2159V196.57H68.1759V199.45C68.1759 200.83 68.9919 201.502 70.3479 201.502C70.6479 201.502 70.9959 201.454 71.3919 201.37V200.302ZM75.6364 197.41C75.5884 199.678 77.5444 201.538 79.8004 201.502C81.2764 201.502 82.5244 200.794 83.1964 199.678L82.2364 198.97C81.6724 199.846 80.8564 200.338 79.8124 200.338C78.1924 200.338 76.9564 199.09 76.9564 197.41C76.9564 195.73 78.1924 194.482 79.8124 194.482C80.8564 194.482 81.6724 194.974 82.2364 195.85L83.1964 195.142C82.5124 194.026 81.2524 193.318 79.8004 193.318C77.5444 193.282 75.5884 195.142 75.6364 197.41ZM89.2554 197.806C89.2554 196.222 88.2954 195.346 86.8434 195.346C85.8234 195.346 84.9474 195.754 84.3594 196.606L85.0914 197.35C85.5834 196.762 86.0634 196.474 86.7234 196.474C87.5274 196.474 87.9834 196.918 87.9834 197.734V198.118H86.3154C84.9834 198.118 84.1434 198.778 84.1434 199.798C84.1434 200.818 84.9594 201.502 86.1954 201.502C86.9994 201.502 87.6474 201.226 88.0794 200.71V201.37H89.2554V197.806ZM87.9834 199.138C87.9834 199.942 87.3114 200.53 86.4594 200.53C85.8474 200.53 85.4274 200.242 85.4274 199.75C85.4274 199.27 85.7994 199.03 86.4714 199.03H87.9834V199.138ZM94.381 195.478C94.237 195.442 94.081 195.418 93.901 195.418C93.229 195.418 92.605 195.718 92.185 196.246V195.478H91.009V201.37H92.269V198.226C92.269 197.182 93.001 196.594 93.997 196.594H94.381V195.478ZM99.8678 192.37V196.198C99.4238 195.658 98.7158 195.346 97.8998 195.346C96.2678 195.31 94.9838 196.714 95.0198 198.43C95.0198 200.17 96.2438 201.502 97.8998 201.502C98.7758 201.502 99.5318 201.142 99.9638 200.53V201.37H101.14V192.37H99.8678ZM99.8918 198.43C99.8918 199.714 99.0398 200.35 98.1158 200.35C97.0718 200.35 96.3038 199.546 96.3038 198.418C96.3038 197.29 97.1078 196.498 98.1158 196.498C99.0278 196.498 99.8918 197.158 99.8918 198.43Z" fill="white"/>
<path d="M71.738 52.0664H97.8586V101.614H71.738V52.0664Z" fill="#B27BFF"/>
<path d="M73.3962 76.8401C73.3962 66.7733 77.8739 57.8441 84.7562 52.0664C79.6983 47.8646 73.3134 45.326 66.348 45.326C49.8458 45.326 36.4954 59.4196 36.4954 76.8401C36.4954 94.2603 49.8458 108.354 66.3476 108.354C73.3131 108.354 79.698 105.816 84.7562 101.614C77.8739 95.9235 73.3962 86.907 73.3962 76.8401V76.8401Z" fill="#9E59FF"/>
<path d="M133.1 76.8401C133.1 94.2603 119.749 108.354 103.248 108.354C96.2822 108.354 89.8973 105.816 84.839 101.614C91.8045 95.8362 96.1994 86.907 96.1994 76.8401C96.1994 66.7733 91.7214 57.8441 84.839 52.0664C89.8969 47.8646 96.2822 45.326 103.248 45.326C119.749 45.326 133.1 59.5074 133.1 76.8401H133.1Z" fill="#9E59FF"/>
<defs>
<linearGradient id="paint0_linear_1101_31" x1="353.421" y1="-69.1342" x2="368.891" y2="469.191" gradientUnits="userSpaceOnUse">
<stop stop-color="#9C2CF3"/>
<stop offset="1" stop-color="#3A49F9"/>
</linearGradient>
<radialGradient id="paint1_radial_1101_31" cx="0" cy="0" r="1" gradientUnits="userSpaceOnUse" gradientTransform="translate(77.1778 328.645) rotate(139.779) scale(49.086 49.2237)">
<stop stop-color="white"/>
<stop offset="1" stop-color="#DDDCDA"/>
</radialGradient>
</defs>
</svg>
